<svg width="150" height="150" viewBox="0 0 150 150" fill="none" xmlns="http://www.w3.org/2000/svg">
<path d="M75 137.5C109.518 137.5 137.5 109.518 137.5 75C137.5 40.4822 109.518 12.5 75 12.5C40.4822 12.5 12.5 40.4822 12.5 75C12.5 109.518 40.4822 137.5 75 137.5Z" fill="#2C2C2C"/>
<path d="M75 37.5V75L100 87.5" fill="#2C2C2C"/>
<path d="M75 37.5V75L100 87.5M137.5 75C137.5 109.518 109.518 137.5 75 137.5C40.4822 137.5 12.5 109.518 12.5 75C12.5 40.4822 40.4822 12.5 75 12.5C109.518 12.5 137.5 40.4822 137.5 75Z" stroke="white" stroke-width="5" stroke-linecap="round" stroke-linejoin="round"/>
</svg>
